# xmcd
#
# Track frame offsets: 
#        150
#        9187
#        23822
#
# Disc length: 507 seconds
#
# Revision: 0
# Processed by: cddbd v1.5.1PL0 Copyright (c) Steve Scherf et al.
# Submitted via: ExactAudioCopy v0.95a5
#
DISCID=1201f903
DTITLE=The Ideal Beginning - Warsaw
DYEAR=1981
DGENRE=Classical
TTITLE0=Gutz (Pennine Sound Studios Oldham 18.07.77)
TTITLE1=At A Later Date (Pennine Sound Studios Oldham 18.07.77)
TTITLE2=The Kill (Pennine Sound Studios Oldham 18.07.77)
EXTD=
EXTT0=
EXTT1=
EXTT2=
PLAYORDER=
